<svg xmlns="http://www.w3.org/2000/svg" width="210" height="100" viewBox="5 0 200 100">
  <!-- O -->
  <text x="0" y="50" font-family="Alice" font-size="60" fill="black">O</text>
  <!-- R -->
  <text x="40" y="50" font-family="Alice" font-size="60" fill="black">R</text>
  <!-- A (Teeth Shape) -->
  <svg xmlns="http://www.w3.org/2000/svg" xmlns:xlink="http://www.w3.org/1999/xlink" preserveAspectRatio="xMidYMid meet" version="1.0" viewBox="300.1 502.7 899.7 981.9" zoomAndPan="magnify" style="fill: rgb(0, 0, 0);" original_string_length="2977">
    <g id="__id115_sol0i4mnn8">
      <path d="M 1058.429688 1425.589844 C 1059.660156 1436.871094 1060.390625 1451.519531 1063.039062 1465.820312 C 1066.238281 1483.121094 1076.238281 1484.648438 1087.871094 1473.058594 C 1098.871094 1462.101562 1109.121094 1450.289062 1118.859375 1438.179688 C 1216.269531 1316.949219 1281.421875 1177.378906 1342.148438 1036.078125 C 1375.839844 957.671875 1388.640625 969.730469 1299.089844 932.828125 C 1167.859375 878.761719 1030.320312 873.25 891.210938 892.210938 C 817.191406 902.289062 746.386719 922.878906 680.925781 960.210938 C 664.9375 969.328125 658.535156 978.148438 666.257812 997.199219 C 691 1058.210938 711.847656 1120.890625 738.558594 1180.988281 C 761.519531 1232.648438 789.996094 1281.910156 817.226562 1331.578125 C 821.53125 1339.441406 832.140625 1343.839844 839.832031 1349.839844 C 845.4375 1342.128906 852.726562 1335.148438 856.363281 1326.609375 C 878.230469 1275.269531 898.199219 1223.101562 921.113281 1172.238281 C 929.554688 1153.519531 941.8125 1135.03125 956.609375 1120.929688 C 1001.230469 1078.410156 1048.339844 1091.480469 1062.238281 1151.78125 C 1070.140625 1186.039062 1071.730469 1222.550781 1070.71875 1257.878906 C 1069.148438 1312.71875 1062.941406 1367.421875 1058.429688 1425.589844 Z M 570.132812 1003.839844 C 587.378906 979.878906 603.039062 954.53125 622.460938 932.488281 C 634.40625 918.941406 636.734375 907.070312 632.710938 890.691406 C 613.992188 814.519531 608.304688 737.058594 612.859375 658.898438 C 618.1875 567.570312 682.523438 523.199219 770.324219 550.480469 C 793.851562 557.789062 817.164062 566.679688 839.25 577.539062 C 888.136719 601.589844 939.210938 611.898438 993.507812 608.980469 C 1001.851562 608.53125 1010.511719 614.058594 1019.023438 616.820312 C 1013.304688 624.210938 1009.011719 635.699219 1001.613281 638.269531 C 969.003906 649.621094 935.664062 659.019531 902.246094 667.808594 C 889.09375 671.269531 874.742188 670.089844 861.507812 673.339844 C 853.285156 675.359375 846.132812 681.730469 838.5 686.148438 C 845.855469 689.929688 853.355469 697.21875 860.546875 696.921875 C 898.769531 695.359375 937.132812 693.570312 975.046875 688.710938 C 1035.25 680.988281 1085.5 652.179688 1129.050781 610.511719 C 1150.210938 590.261719 1172.050781 570.660156 1194.398438 551.730469 C 1252.269531 502.699219 1334.140625 510.570312 1382.789062 568.53125 C 1428.558594 623.058594 1432.929688 686.988281 1423.839844 752.949219 C 1417.988281 795.441406 1408.410156 837.550781 1398.089844 879.230469 C 1393.460938 897.898438 1394.789062 909.980469 1409.058594 925.03125 C 1431.75 948.960938 1449.828125 977.25 1469.871094 1003.699219 C 1263.410156 762.050781 762.597656 771.949219 570.132812 1003.839844" style="fill: rgb(0, 0, 0);"/>
    </g>
  </svg>
  <!-- L -->
  <text x="175" y="50" font-family="Alice" font-size="60" fill="black">L</text>
  <!-- Slogan -->
  <text x="0" y="80" font-family="Arial" font-size="12" fill="black">Your personal</text>
  <text x="0" y="95" font-family="Arial" font-size="12" fill="black">guide to perfect smile</text>
  <!-- I -->
  <text x="175" y="95" font-family="Alice" font-size="60" fill="black">I</text>
</svg>
